<?xml version="1.0" standalone="no"?>
<!DOCTYPE svg PUBLIC "-//W3C//DTD SVG 20010904//EN"
 "http://www.w3.org/TR/2001/REC-SVG-20010904/DTD/svg10.dtd">
<svg version="1.0" xmlns="http://www.w3.org/2000/svg"
 width="400.000000pt" height="400.000000pt" viewBox="0 0 400.000000 400.000000"
 preserveAspectRatio="xMidYMid meet">
<metadata>
Created by potrace 1.11, written by Peter Selinger 2001-2013
</metadata>
<g transform="translate(0.000000,400.000000) scale(0.100000,-0.100000)"
fill="#000000" stroke="none">
<path d="M0 3620 l0 -380 380 0 380 0 0 380 0 380 -380 0 -380 0 0 -380z"/>
<path d="M1510 3620 l0 -380 375 0 375 0 0 380 0 380 -375 0 -375 0 0 -380z"/>
<path d="M3010 3620 l0 -380 375 0 375 0 0 380 0 380 -375 0 -375 0 0 -380z"/>
<path d="M770 2865 l0 -365 365 0 365 0 0 365 0 365 -365 0 -365 0 0 -365z"/>
<path d="M2270 2865 l0 -365 365 0 365 0 0 365 0 365 -365 0 -365 0 0 -365z"/>
<path d="M3770 2865 l0 -365 115 0 115 0 0 365 0 365 -115 0 -115 0 0 -365z"/>
<path d="M0 2115 l0 -375 380 0 380 0 0 375 0 375 -380 0 -380 0 0 -375z"/>
<path d="M1510 2115 l0 -375 375 0 375 0 0 375 0 375 -375 0 -375 0 0 -375z"/>
<path d="M3010 2115 l0 -375 375 0 375 0 0 375 0 375 -375 0 -375 0 0 -375z"/>
<path d="M770 1365 l0 -365 365 0 365 0 0 365 0 365 -365 0 -365 0 0 -365z"/>
<path d="M3770 1365 l0 -365 115 0 115 0 0 365 0 365 -115 0 -115 0 0 -365z"/>
<path d="M0 615 l0 -375 380 0 380 0 0 375 0 375 -380 0 -380 0 0 -375z"/>
<path d="M1510 615 l0 -375 375 0 375 0 0 375 0 375 -375 0 -375 0 0 -375z"/>
<path d="M3010 615 l0 -375 375 0 375 0 0 375 0 375 -375 0 -375 0 0 -375z"/>
<path d="M770 115 l0 -115 365 0 365 0 0 115 0 115 -365 0 -365 0 0 -115z"/>
<path d="M2270 115 l0 -115 365 0 365 0 0 115 0 115 -365 0 -365 0 0 -115z"/>
<path d="M3770 115 l0 -115 115 0 115 0 0 115 0 115 -115 0 -115 0 0 -115z"/>
</g>
</svg>
